<svg version="1.1" viewBox="0 0 16 16" xmlns="http://www.w3.org/2000/svg">
    <style>
        :root {
            --fill: #000;
        }
        @media (prefers-color-scheme: dark) {
            :root {
                --fill: #fff;
            }
        }
    </style>
    <path fill="var(--fill)" d="m5.032 11.593q-1.0033 0-1.7407-0.462-0.73733-0.46667-1.1433-1.2787-0.40133-0.812-0.40133-1.8527t0.40133-1.8527q0.406-0.812 1.1433-1.274 0.73733-0.46667 1.7407-0.46667 0.45267 0 0.84 0.15867t0.68133 0.43867l0.73733-0.504h0.018667v1.9973h-0.023334q-0.093333-0.59267-0.406-1.0547-0.31267-0.462-0.77-0.72333-0.45267-0.266-0.98467-0.266-0.55533 0-0.938 0.31267-0.378 0.308-0.60667 0.826-0.224 0.51333-0.32667 1.1433-0.098 0.62533-0.098 1.2647 0 0.63467 0.098 1.2647 0.10267 0.63 0.32667 1.148 0.22867 0.51333 0.60667 0.826 0.38267 0.308 0.938 0.308 0.48067 0 0.868-0.15867 0.392-0.16333 0.68133-0.448 0.28933-0.28933 0.46667-0.65333 0.182-0.36867 0.238-0.784h0.023333v1.9973h-0.018666l-0.67667-0.55533q-0.29867 0.30333-0.728 0.476-0.42467 0.17267-0.94733 0.17267zm5.7447-7.0933q1.0827 0 1.8573 0.448 0.77933 0.448 1.1993 1.2413 0.42 0.78867 0.42 1.8107 0 0.76533-0.252 1.4093-0.252 0.63933-0.714 1.1107-0.45733 0.46667-1.0967 0.72333-0.63467 0.25667-1.414 0.25667h-2.8327v-0.01867h0.83533v-6.9627h-0.83533v-0.018667zm-0.77 6.9813h0.77q0.58333 0 0.97533-0.28933 0.39667-0.28933 0.63467-0.77933 0.24267-0.49467 0.34533-1.12 0.10733-0.62533 0.10733-1.2973 0-0.66733-0.12133-1.288-0.11667-0.62533-0.364-1.1153-0.24733-0.49467-0.63933-0.784-0.38733-0.28933-0.938-0.28933h-0.77z" stroke-width="0" aria-label="CD"/>
</svg>
